<?xml version="1.0" standalone="no"?>
<!DOCTYPE svg PUBLIC "-//W3C//DTD SVG 20010904//EN"
 "http://www.w3.org/TR/2001/REC-SVG-20010904/DTD/svg10.dtd">
<svg version="1.0" xmlns="http://www.w3.org/2000/svg"
 width="512.000000pt" height="512.000000pt" viewBox="0 0 512.000000 512.000000"
 preserveAspectRatio="xMidYMid meet">

<g transform="translate(0.000000,512.000000) scale(0.100000,-0.100000)"
fill="#000000" stroke="none">
<path d="M910 4674 c-177 -47 -335 -175 -415 -339 -70 -141 -66 -20 -63 -1801
l3 -1609 26 -67 c74 -190 207 -323 397 -397 l67 -26 1625 0 1625 0 70 22 c195
62 356 223 418 418 l22 70 0 1625 0 1625 -26 67 c-74 191 -206 323 -397 397
l-67 26 -1615 2 c-1384 2 -1623 0 -1670 -13z m2809 -1084 c66 -33 111 -110
111 -190 0 -22 -11 -59 -27 -88 -41 -75 -1624 -1756 -1678 -1782 -57 -28 -140
-27 -193 3 -53 28 -603 610 -633 669 -31 61 -24 152 16 210 60 85 183 115 273
66 24 -14 123 -110 238 -233 108 -115 201 -210 205 -210 4 0 310 322 679 715
768 819 792 843 846 858 51 14 114 7 163 -18z"/>
</g>
</svg>
