<svg xmlns="http://www.w3.org/2000/svg" width="11.859" height="15.813" viewBox="0 0 11.859 15.813">
  <path id="Icon_awesome-child" data-name="Icon awesome-child" d="M3.706,2.224A2.224,2.224,0,1,1,5.93,4.447,2.224,2.224,0,0,1,3.706,2.224Zm7.864.042a.988.988,0,0,0-1.4,0L7.5,4.941H4.362L1.687,2.266a.988.988,0,0,0-1.4,1.4L3.212,6.586v8.238a.988.988,0,0,0,.988.988h.494a.988.988,0,0,0,.988-.988V11.365h.494v3.459a.988.988,0,0,0,.988.988h.494a.988.988,0,0,0,.988-.988V6.586L11.57,3.664a.988.988,0,0,0,0-1.4Z" transform="translate(0)"/>
</svg>
