<?xml version="1.0" standalone="no"?>
<!DOCTYPE svg PUBLIC "-//W3C//DTD SVG 20010904//EN"
 "http://www.w3.org/TR/2001/REC-SVG-20010904/DTD/svg10.dtd">
<svg version="1.0" xmlns="http://www.w3.org/2000/svg"
 width="50.000000pt" height="50.000000pt" viewBox="0 0 50.000000 50.000000"
 preserveAspectRatio="xMidYMid meet">

<g transform="translate(0.000000,50.000000) scale(0.100000,-0.100000)"
fill="#FFFFFF" stroke="none">
<path d="M137 474 c-4 -4 -7 -16 -7 -26 0 -15 -8 -18 -55 -18 -30 0 -55 -4
-55 -10 0 -5 24 -10 54 -10 49 0 55 -2 58 -22 2 -19 9 -23 38 -23 l35 0 0 55
c0 54 -1 55 -30 58 -17 2 -34 0 -38 -4z"/>
<path d="M220 420 c0 -6 50 -10 130 -10 80 0 130 4 130 10 0 6 -50 10 -130 10
-80 0 -130 -4 -130 -10z"/>
<path d="M317 304 c-4 -4 -7 -16 -7 -26 0 -17 -11 -18 -145 -18 -90 0 -145 -4
-145 -10 0 -6 55 -10 144 -10 142 0 145 0 148 -22 2 -19 9 -23 38 -23 l35 0 0
55 c0 54 -1 55 -30 58 -17 2 -34 0 -38 -4z"/>
<path d="M400 250 c0 -5 18 -10 40 -10 22 0 40 5 40 10 0 6 -18 10 -40 10 -22
0 -40 -4 -40 -10z"/>
<path d="M107 134 c-4 -4 -7 -16 -7 -26 0 -14 -8 -18 -40 -18 -22 0 -40 -4
-40 -10 0 -5 18 -10 39 -10 33 0 40 -4 43 -22 2 -19 9 -23 38 -23 l35 0 0 55
c0 54 -1 55 -30 58 -17 2 -34 0 -38 -4z"/>
<path d="M190 80 c0 -6 55 -10 145 -10 90 0 145 4 145 10 0 6 -55 10 -145 10
-90 0 -145 -4 -145 -10z"/>
</g>
</svg>
