<?xml version="1.0" standalone="no"?>
<!DOCTYPE svg PUBLIC "-//W3C//DTD SVG 20010904//EN"
 "http://www.w3.org/TR/2001/REC-SVG-20010904/DTD/svg10.dtd">
<svg version="1.0" xmlns="http://www.w3.org/2000/svg"
 width="50.000000pt" height="50.000000pt" viewBox="0 0 50.000000 50.000000"
 preserveAspectRatio="xMidYMid meet">

<g transform="translate(0.000000,50.000000) scale(0.100000,-0.100000)"
fill="#FFFFFF" stroke="none">
<path d="M80 425 c-51 -52 -47 -75 5 -25 l35 34 0 -162 c0 -101 4 -162 10
-162 6 0 10 61 10 162 l0 162 35 -34 c52 -50 56 -27 5 25 -24 25 -47 45 -50
45 -3 0 -26 -20 -50 -45z"/>
<path d="M360 460 c0 -5 5 -10 10 -10 6 0 10 5 10 10 0 6 -4 10 -10 10 -5 0
-10 -4 -10 -10z"/>
<path d="M360 420 c0 -5 5 -10 10 -10 6 0 10 5 10 10 0 6 -4 10 -10 10 -5 0
-10 -4 -10 -10z"/>
<path d="M360 228 l0 -162 -35 34 c-19 18 -38 30 -42 26 -4 -3 14 -28 40 -54
l47 -47 47 47 c26 26 44 51 40 54 -4 4 -23 -8 -42 -26 l-35 -34 0 162 c0 101
-4 162 -10 162 -6 0 -10 -61 -10 -162z"/>
<path d="M120 80 c0 -5 5 -10 10 -10 6 0 10 5 10 10 0 6 -4 10 -10 10 -5 0
-10 -4 -10 -10z"/>
<path d="M120 40 c0 -5 5 -10 10 -10 6 0 10 5 10 10 0 6 -4 10 -10 10 -5 0
-10 -4 -10 -10z"/>
</g>
</svg>
