<?xml version="1.0" standalone="no"?>
<!DOCTYPE svg PUBLIC "-//W3C//DTD SVG 20010904//EN"
 "http://www.w3.org/TR/2001/REC-SVG-20010904/DTD/svg10.dtd">
<svg version="1.0" xmlns="http://www.w3.org/2000/svg"
 width="512.000000pt" height="512.000000pt" viewBox="0 0 512.000000 512.000000"
 preserveAspectRatio="xMidYMid meet">

<g transform="translate(0.000000,512.000000) scale(0.100000,-0.100000)"
fill="#000000" stroke="none">
<path d="M1140 4464 c-234 -50 -436 -254 -485 -489 -22 -105 -22 -2725 0
-2830 50 -237 252 -439 491 -490 103 -22 2724 -22 2829 0 181 38 349 168 433
335 75 151 72 67 72 1570 0 1503 3 1419 -72 1570 -84 167 -252 297 -433 335
-102 21 -2736 21 -2835 -1z m2830 -332 c72 -35 114 -75 151 -144 l34 -63 0
-1365 0 -1365 -27 -51 c-40 -76 -70 -107 -140 -145 l-63 -34 -1365 0 -1365 0
-63 34 c-69 37 -109 79 -144 151 l-23 45 0 1365 0 1365 25 50 c43 86 125 154
215 176 17 4 635 6 1375 6 l1345 -2 45 -23z"/>
</g>
</svg>
